inDegrees=yes
name=ik_S48_A12_T02
DataType=double
version=3
OpenSimVersion=4.3-2021-08-27-4bc7ad9
endheader
time	pelvis_tilt	pelvis_list	pelvis_rotation	pelvis_tx	pelvis_ty	pelvis_tz	hip_flexion_r	hip_adduction_r	hip_rotation_r	knee_angle_r	knee_angle_r_beta	ankle_angle_r	subtalar_angle_r	mtp_angle_r	hip_flexion_l	hip_adduction_l	hip_rotation_l	knee_angle_l	knee_angle_l_beta	ankle_angle_l	subtalar_angle_l	mtp_angle_l	lumbar_extension	lumbar_bending	lumbar_rotation	arm_flex_r	arm_add_r	arm_rot_r	elbow_flex_r	pro_sup_r	wrist_flex_r	wrist_dev_r	arm_flex_l	arm_add_l	arm_rot_l	elbow_flex_l	pro_sup_l	wrist_flex_l	wrist_dev_l
4.639999999999989	-2.0888546862237	-1.187512044809824	32.31626067338689	0	0.9399999999999999	0	21.83470205760177	-7.863491609659132	-6.758929125617536	25.0659462450002	0.4374832921031627	0	0	0	21.83470205760177	-7.863491609659132	-6.758929125617536	25.0659462450002	0.4374832921031627	0	0	0	-1.812703279767053	-0.04028325913361876	9.185178461295189	17.68429243485402	-6.369814620853287	-2.35222594100102	4.323646590037722	135.3618779038792	0	0	58.88080237653422	-47.45093432428353	17.33747338082702	56.33045478719072	48.39283424633366	0	0
4.659999999999989	-2.096204127208512	-1.173212408133973	32.08965714451395	0	0.9399999999999999	0	21.85207559978489	-7.868569407630751	-6.763879203315006	25.08318353851166	0.4377841396290704	0	0	0	21.85207559978489	-7.868569407630751	-6.763879203315006	25.08318353851166	0.4377841396290704	0	0	0	-1.808353442146392	-0.02954990936417681	9.334886969458651	17.62803051879471	-6.429694057282734	-2.485338574853779	4.262778781774519	135.478322974408	0	0	61.66701184696195	-47.75553190640309	19.60911723126715	54.99430027983968	47.28074911747456	0	0
4.679999999999988	-2.14126718415013	-1.184691801010279	31.87717439658515	0	0.9399999999999999	0	21.87150180454475	-7.87424237187352	-6.76941272062346	25.10244785303663	0.4381203653456708	0	0	0	21.87150180454475	-7.87424237187352	-6.76941272062346	25.10244785303663	0.4381203653456708	0	0	0	-1.839958785700001	-0.02951007447869644	9.489249329975175	17.65119361986592	-6.519375543009995	-2.492785329524499	4.202188659463113	135.5696277274691	0	0	64.83974224164761	-48.2460723116533	21.82480436364553	56.0186151422241	46.13635745648543	0	0
4.699999999999988	-2.16125825606742	-1.205197238325997	31.77555868994598	0	0.9399999999999999	0	22.12312755720397	-7.927580016030412	-6.829290195874191	25.40773722377472	0.4434486700363922	0	0	0	22.12312755720397	-7.927580016030412	-6.829290195874191	25.40773722377472	0.4434486700363922	0	0	0	-1.883886924907956	-0.04271143393666538	9.564493177827629	17.69980642978379	-6.556254681076545	-2.430271511229235	4.127903507037614	135.581044168119	0	0	68.30271764720591	-48.79165757223684	24.26612542329592	59.11662149032564	45.01972781234967	0	0
4.719999999999987	-2.169430857613174	-1.197951520353671	31.5568641717287	0	0.9399999999999999	0	22.14470308141584	-7.933795247057203	-6.835398349959111	25.42907217947289	0.4438210352590923	0	0	0	22.14470308141584	-7.933795247057203	-6.835398349959111	25.42907217947289	0.4438210352590923	0	0	0	-1.878016802344936	-0.04556303699952139	9.752385763862115	17.68177911462077	-6.594273114730167	-2.347443051196498	4.036347475465307	135.6228094581434	0	0	71.38911822252396	-48.88761465482956	26.88413405257459	59.84889609170786	43.89904368068646	0	0
4.739999999999987	-2.182005394892927	-1.204100510815386	31.36059766602814	0	0.9399999999999999	0	22.16177891086956	-7.938699474295584	-6.840225256218106	25.44597747108481	0.4441160882587301	0	0	0	22.16177891086956	-7.938699474295584	-6.840225256218106	25.44597747108481	0.4441160882587301	0	0	0	-1.884939729734492	-0.05443804993555732	9.946133461360686	17.67168782138671	-6.604263076726816	-2.195003404377535	4.053394115818875	135.4467935806914	0	0	74.58277073486953	-48.82358376161881	29.65769795782873	60.35533886997889	43.04654435531928	0	0
4.759999999999986	-2.226280930957897	-1.232720839923434	31.18298273688345	0	0.9399999999999999	0	22.18229712622871	-7.944584528580935	-6.846022265368079	25.46628560625192	0.4444705320823362	0	0	0	22.18229712622871	-7.944584528580935	-6.846022265368079	25.46628560625192	0.4444705320823362	0	0	0	-1.930973187199325	-0.0636749862621738	10.13356798676142	17.7842701433145	-6.655857831976827	-2.043057114640968	3.955503283534488	135.3829271725524	0	0	77.69813699243338	-48.57407090801593	32.52287045375321	59.66677139658579	42.03162290127511	0	0
4.779999999999986	-2.266147603786345	-1.262066263753167	30.95820505986947	0	0.9399999999999999	0	22.20118876698515	-7.94999682907419	-6.851357645997684	25.48497491202685	0.4447967220030208	0	0	0	22.20118876698515	-7.94999682907419	-6.851357645997684	25.48497491202685	0.4447967220030208	0	0	0	-1.975726319736946	-0.07645059796097163	10.34102916089463	17.91770517384058	-6.674353496906495	-1.96609449253362	3.858769046284607	135.4040394819381	0	0	80.99186841706995	-48.27787930211714	35.39057533985556	60.55567787734741	42.06951665079112	0	0
4.799999999999986	-2.313078320758096	-1.346065318944853	30.96187969445769	0	0.9399999999999999	0	22.20704249673461	-7.951556112457459	-6.852940700613498	25.49111480426137	0.4449038833382308	0	0	0	22.20704249673461	-7.951556112457459	-6.852940700613498	25.49111480426137	0.4449038833382308	0	0	0	-2.058700972334198	-0.1257597782839891	10.36488724642221	18.161051983628	-6.689549397948742	-1.990419789092922	3.822276012839215	135.4061383089833	0	0	81.34218158510677	-48.28951299772775	35.46082630886244	61.15333632898033	42.61893338821792	0	0
4.819999999999985	-2.297632608945051	-1.324916921852675	30.86253910657955	0	0.9399999999999999	0	22.32221918327493	-7.975747878806123	-6.880212828637158	25.63080832249275	0.4473419951750631	0	0	0	22.32221918327493	-7.975747878806123	-6.880212828637158	25.63080832249275	0.4473419951750631	0	0	0	-2.031794667443333	-0.1283615632662466	10.43832658974191	18.1906153133343	-6.697742363036403	-1.90324917276026	3.740646850849852	135.3297245160702	0	0	87.05361285808799	-47.10054944607208	41.54912141435869	58.99428689813985	41.14375819338541	0	0
4.839999999999985	-2.266419272805428	-1.29351340297357	30.86869782235593	0	0.9399999999999999	0	22.33293089797187	-7.97876030517502	-6.883207752151231	25.6414936642725	0.4475284895708206	0	0	0	22.33293089797187	-7.97876030517502	-6.883207752151231	25.6414936642725	0.4475284895708206	0	0	0	-1.989079825404975	-0.1174101048631467	10.43518318559113	18.10174826016577	-6.691197282531401	-1.909488583919725	3.75407880524651	135.3367453660124	0	0	87.13782447273977	-47.16416483106062	41.51846636038329	59.91897873652875	42.25252948818527	0	0
4.859999999999984	-2.318936887479902	-1.309575005763124	30.83379329364062	0	0.9399999999999999	0	22.42002819492781	-7.997688184720019	-6.904226587544275	25.74442582773716	0.4493249947294799	0	0	0	22.42002819492781	-7.997688184720019	-6.904226587544275	25.74442582773716	0.4493249947294799	0	0	0	-2.042241911087127	-0.1099373389538573	10.50681338053925	18.26881165979713	-6.749831289073486	-1.765337305279186	3.842353338820669	135.30552748863	0	0	92.00716380397583	-45.34275913667992	47.13100504006125	57.24281523039458	40.49176962330972	0	0
4.879999999999984	-2.3451253449999	-1.348181891487262	30.91411355022615	0	0.9399999999999999	0	22.42764372354308	-7.999812234604799	-6.906347156850001	25.75203262291841	0.4494577583509176	0	0	0	22.42764372354308	-7.999812234604799	-6.906347156850001	25.75203262291841	0.4494577583509176	0	0	0	-2.085743003765332	-0.1269509373618133	10.44743973212622	18.44604785097049	-6.714919418100315	-1.573139818216185	3.75602192542459	135.1159615576492	0	0	92.21077964394092	-45.33946962443706	47.13592391296188	57.75504686721836	41.05302030134906	0	0
4.899999999999983	-2.36670991228771	-1.314877333532983	30.90640729895084	0	0.9399999999999999	0	22.47775506903578	-8.011107496220001	-6.918676667857304	25.81040569695493	0.4504765606873653	0	0	0	22.47775506903578	-8.011107496220001	-6.918676667857304	25.81040569695493	0.4504765606873653	0	0	0	-2.089143836780976	-0.09064749580421654	10.48690520912755	18.43744005439774	-6.807606880551805	-1.599050416270993	3.999861652051941	135.2547415380822	0	0	96.19529488766376	-43.3857608698504	50.93145643496924	54.84368894970093	39.9378866582047	0	0
4.919999999999983	-2.41679003058053	-1.304667191235181	30.86254112771521	0	0.9399999999999999	0	22.4926157635035	-8.015279976699947	-6.922833726053582	25.82511471346047	0.4507332814551171	0	0	0	22.4926157635035	-8.015279976699947	-6.922833726053582	25.82511471346047	0.4507332814551171	0	0	0	-2.127325724807983	-0.05659815075149811	10.50679074347555	18.72099302605988	-6.746585009815165	-1.038758559935873	3.898522017934742	134.7413773597411	0	0	97.83435152402274	-42.42251446508351	52.10538955351078	53.18637663402368	41.42279432103187	0	0
4.939999999999983	-2.443449647293551	-1.293889483901419	30.74472117023452	0	0.9399999999999999	0	22.50496099117908	-8.018740599469059	-6.92628452890378	25.83733766205644	0.4509466121524189	0	0	0	22.50496099117908	-8.018740599469059	-6.92628452890378	25.83733766205644	0.4509466121524189	0	0	0	-2.142975576069391	-0.03897571276725262	10.59678831926915	18.87749282263059	-6.72335366655008	-0.7373928251149015	3.936105059309822	134.4155043899198	0	0	99.23754249484156	-41.52400862156228	53.02058006044678	51.58577110521125	41.90714999049735	0	0
4.959999999999982	-2.482520180196695	-1.274708148424738	30.61208013401668	0	0.9399999999999999	0	22.51573342476867	-8.021760462860927	-6.929296335640153	25.84799346405474	0.4511325909817298	0	0	0	22.51573342476867	-8.021760462860927	-6.929296335640153	25.84799346405474	0.4511325909817298	0	0	0	-2.164500581480388	-0.008139454830696542	10.70928865821449	19.07077233044732	-6.743412886495097	-0.5895157634044514	4.007878700202365	134.2142708053491	0	0	100.4062556294689	-40.61037128412585	54.09690744828412	50.19981793840778	41.57178962938996	0	0
4.979999999999982	-2.500955445005192	-1.261404971323269	30.51039611584118	0	0.9399999999999999	0	22.5275102217826	-8.025062740222365	-6.932590023648786	25.85963065447904	0.4513356982703154	0	0	0	22.5275102217826	-8.025062740222365	-6.932590023648786	25.85963065447904	0.4513356982703154	0	0	0	-2.172658844606781	0.008571121775887638	10.80352322970608	19.22268676947782	-6.710794710836801	-0.5833698433395497	4.076200661737991	134.1455403170875	0	0	101.3786979152327	-39.84790233571066	55.13604038370222	49.07741823465403	40.97096965500426	0	0
4.999999999999981	-2.546511939038096	-1.251550229961689	30.3954012163673	0	0.9399999999999999	0	22.53820108892053	-8.02805919254142	-6.935579698280769	25.87019035050021	0.4515199997338946	0	0	0	22.53820108892053	-8.02805919254142	-6.935579698280769	25.87019035050021	0.4515199997338946	0	0	0	-2.206605013881116	0.03727018704152071	10.87291142432057	19.4288050433101	-6.666154019355382	-0.5209979735289889	4.178203665065601	134.0155603178161	0	0	102.069474285823	-39.16945926572135	55.8526851861985	48.19650523634586	40.33379523782092	0	0
5.019999999999981	-2.562674202617457	-1.212238621797735	30.30831288131321	0	0.9399999999999999	0	22.54640583626464	-8.030354029743885	-6.93787155216295	25.87830357127615	0.451661602149376	0	0	0	22.54640583626464	-8.030354029743885	-6.93787155216295	25.87830357127615	0.451661602149376	0	0	0	-2.199832056162014	0.07636552951024961	10.93232873703754	19.51396523277486	-6.649026831570807	-0.5035492690560419	4.293986105307709	133.8774760688255	0	0	102.3629043398464	-38.64646359146051	56.36925766563069	47.48662231553976	39.62817173040019	0	0
